# xmcd CD database file
#
# Track frame offsets:
#	150
#	12903
#	30604
#	47226
#	70045
#	93521
#	113810
#	129953
#	153289
#	167901
#	193751
#	210427
#	232398
#	255886
#
# Disc length: 3621 seconds
#
# Revision: 0
# Processed by: cddbd v1.5.2PL0 Copyright (c) Steve Scherf et al.
# Submitted via: CDex 1.70beta2
#
DISCID=b60e230e
DTITLE=Ann Hampton Callaway - To Ella With Love
DYEAR=1996
DGENRE=Jazz
TTITLE0=Let's Fall In Love
TTITLE1=Do Nothin' Til You Hear From Me
TTITLE2=A Fine Romance
TTITLE3=Embraceable You
TTITLE4=How High The Moon
TTITLE5=But Not For Me
TTITLE6=I'm Beginning To See The Light
TTITLE7=Body And Soul
TTITLE8=That Old Black Magic
TTITLE9=Little Girl Blue
TTITLE10=Lullaby Of Birdland
TTITLE11=Ev'ry Time We Say Goodbye
TTITLE12=I Got It Bad
TTITLE13=Oh Lady Be Good
EXTD=YEAR: 1996
EXTT0=
EXTT1=
EXTT2=
EXTT3=
EXTT4=
EXTT5=
EXTT6=
EXTT7=
EXTT8=
EXTT9=
EXTT10=
EXTT11=
EXTT12=
EXTT13=
PLAYORDER=
